<?xml version="1.0" standalone="no"?>
<!DOCTYPE svg PUBLIC "-//W3C//DTD SVG 20010904//EN"
 "http://www.w3.org/TR/2001/REC-SVG-20010904/DTD/svg10.dtd">
<svg version="1.0" xmlns="http://www.w3.org/2000/svg" viewBox="0 0 512.000000 512.000000"
 preserveAspectRatio="xMidYMid meet">

<g transform="translate(0.000000,512.000000) scale(0.100000,-0.100000)"
fill="#000000" stroke="none">
<path d="M4600 4388 c-25 -7 -83 -57 -205 -178 l-170 -168 -660 -329 c-483
-241 -676 -333 -719 -341 -81 -16 -190 -15 -261 3 -33 8 -201 85 -373 170
-172 85 -315 155 -317 155 -3 0 -5 -189 -5 -420 l0 -420 258 129 257 128 52
-18 c143 -49 350 -51 505 -5 63 18 284 124 775 370 l688 344 176 179 c187 189
208 219 194 289 -8 46 -58 101 -103 114 -43 12 -46 11 -92 -2z"/>
<path d="M69 3887 c-67 -45 -70 -58 -67 -374 3 -267 4 -283 24 -309 38 -51 65
-64 154 -74 142 -14 248 -65 332 -159 79 -88 128 -208 128 -313 l0 -48 475 0
476 0 -3 598 c-3 594 -3 597 -25 632 -46 74 -1 70 -771 70 l-689 0 -34 -23z"/>
<path d="M642 1568 c3 -708 4 -744 22 -771 10 -15 33 -38 50 -50 30 -22 37
-22 386 -25 353 -3 355 -3 400 20 26 14 53 37 65 58 20 34 20 50 20 770 l0
735 -473 3 -472 2 2 -742z"/>
<path d="M4904 2290 c-42 -21 -84 -80 -84 -119 l0 -21 -1465 0 -1465 0 0 -635
0 -635 1464 0 1464 0 6 -35 c16 -82 105 -137 185 -115 47 12 98 66 106 112 3
18 5 333 3 700 -3 655 -3 667 -24 694 -51 70 -121 89 -190 54z"/>
<path d="M95 2136 c-41 -18 -83 -69 -90 -109 -3 -18 -5 -260 -3 -539 3 -494 4
-507 24 -534 45 -61 66 -69 195 -73 l119 -3 0 636 0 636 -107 0 c-67 -1 -120
-6 -138 -14z"/>
</g>
</svg>
