<?xml version="1.0" standalone="no"?>
<!DOCTYPE svg PUBLIC "-//W3C//DTD SVG 20010904//EN"
 "http://www.w3.org/TR/2001/REC-SVG-20010904/DTD/svg10.dtd">
<svg version="1.0" xmlns="http://www.w3.org/2000/svg" viewBox="0 0 512.000000 512.000000"
 preserveAspectRatio="xMidYMid meet">

<g transform="translate(0.000000,512.000000) scale(0.100000,-0.100000)"
fill="#000000" stroke="none">
<path d="M2330 5110 c-433 -43 -839 -187 -1190 -421 -510 -339 -886 -857
-1046 -1439 -225 -817 -37 -1678 510 -2339 l59 -72 -60 -54 c-113 -102 -169
-256 -145 -399 31 -192 174 -340 361 -376 74 -14 3408 -14 3482 0 187 36 330
184 361 376 24 143 -32 297 -145 399 l-60 54 59 72 c587 709 759 1652 458
2510 -45 130 -152 354 -228 479 -317 519 -828 917 -1416 1101 -119 38 -274 73
-410 94 -123 18 -468 27 -590 15z m435 -300 c430 -40 862 -214 1210 -488 38
-31 124 -110 190 -176 341 -342 557 -771 632 -1256 24 -159 24 -490 -1 -650
-74 -482 -292 -925 -614 -1253 l-87 -87 -178 0 c-158 0 -182 -2 -217 -20 -45
-23 -80 -80 -80 -130 0 -50 35 -107 80 -130 36 -18 58 -20 295 -20 237 0 259
-2 295 -20 45 -23 80 -80 80 -130 0 -50 -35 -107 -80 -130 -39 -20 -55 -20
-1730 -20 -1675 0 -1691 0 -1730 20 -45 23 -80 80 -80 130 0 50 35 107 80 130
36 18 58 20 295 20 237 0 259 2 295 20 45 23 80 80 80 130 0 50 -35 107 -80
130 -35 18 -59 20 -217 20 l-178 0 -87 87 c-322 328 -540 771 -614 1253 -25
160 -25 491 -1 650 75 485 291 914 632 1256 196 197 365 318 610 439 376 186
788 263 1200 225z"/>
<path d="M2435 4214 c-16 -2 -70 -9 -120 -15 -193 -24 -448 -118 -630 -231
-361 -226 -627 -586 -730 -988 -39 -156 -49 -236 -49 -410 0 -174 10 -254 49
-410 109 -425 395 -796 790 -1024 157 -90 385 -169 570 -197 122 -19 395 -16
515 4 505 86 948 403 1192 854 132 244 193 490 192 778 0 169 -10 251 -49 405
-160 622 -694 1111 -1330 1216 -90 14 -343 26 -400 18z m378 -319 c85 -15 221
-56 301 -90 l39 -17 -39 -37 c-165 -161 -282 -266 -321 -291 -131 -83 -335
-83 -466 0 -39 25 -156 130 -321 291 l-39 37 39 17 c120 51 272 89 434 109 65
8 284 -3 373 -19z m-909 -463 c207 -205 270 -250 406 -296 162 -54 338 -54
500 0 136 46 199 91 407 297 l193 190 22 -18 c49 -41 131 -122 160 -158 l31
-39 -185 -186 c-194 -196 -231 -242 -279 -348 -44 -96 -62 -185 -62 -304 0
-119 18 -208 62 -304 48 -106 85 -152 279 -348 l186 -187 -19 -23 c-41 -49
-122 -131 -158 -160 l-38 -31 -192 190 c-210 207 -277 256 -411 299 -163 51
-329 51 -492 0 -134 -43 -201 -92 -411 -299 l-192 -190 -38 31 c-36 29 -117
111 -158 160 l-19 23 186 187 c194 196 231 242 279 348 44 96 62 185 62 304 0
119 -18 208 -62 304 -48 106 -85 152 -279 348 l-185 186 32 41 c32 41 169 171
179 171 3 0 92 -85 196 -188z m-246 -626 c86 -136 86 -336 0 -472 -17 -27 -97
-116 -178 -199 l-148 -149 -17 39 c-76 180 -109 343 -109 545 0 202 33 365
109 545 l17 39 148 -149 c81 -83 161 -172 178 -199z m2166 261 c102 -260 121
-563 51 -830 -23 -91 -70 -223 -85 -240 -9 -10 -291 278 -328 337 -86 135 -86
337 0 472 37 59 319 347 328 337 4 -5 19 -39 34 -76z m-1128 -1343 c89 -25
147 -72 418 -335 l39 -37 -39 -17 c-177 -76 -346 -108 -554 -108 -208 0 -377
32 -554 108 l-39 17 39 37 c166 161 282 267 322 292 102 64 235 80 368 43z"/>
<path d="M2465 2853 c-211 -76 -272 -336 -115 -493 61 -61 119 -85 210 -85 91
0 149 24 210 85 61 61 85 119 85 210 0 91 -24 149 -85 210 -80 80 -203 109
-305 73z"/>
</g>
</svg>
