<?xml version="1.0" standalone="no"?>
<!DOCTYPE svg PUBLIC "-//W3C//DTD SVG 20010904//EN"
 "http://www.w3.org/TR/2001/REC-SVG-20010904/DTD/svg10.dtd">
<svg version="1.0" xmlns="http://www.w3.org/2000/svg" viewBox="0 0 512.000000 512.000000"
 preserveAspectRatio="xMidYMid meet">

<g transform="translate(0.000000,512.000000) scale(0.100000,-0.100000)"
fill="#000000" stroke="none">
<path d="M905 4375 c-25 -24 -25 -26 -25 -215 0 -189 0 -191 25 -215 23 -24
30 -25 147 -25 l123 0 139 -544 139 -544 -454 -508 c-249 -280 -516 -578 -593
-662 l-139 -153 -68 7 c-64 6 -69 5 -93 -19 l-26 -26 0 -191 c0 -189 0 -191
25 -215 13 -14 30 -25 38 -25 8 0 255 -29 548 -64 294 -36 689 -84 879 -106
332 -40 346 -43 380 -70 75 -59 118 -74 210 -74 73 0 92 4 137 27 95 49 151
123 176 231 12 52 30 73 756 860 409 443 747 806 751 806 4 0 138 -318 299
-707 176 -426 300 -715 313 -725 11 -10 31 -18 44 -18 36 0 381 176 395 201 6
12 9 33 7 48 -9 53 -969 2356 -990 2374 -11 9 -31 17 -44 17 -13 0 -106 -41
-205 -91 -154 -77 -183 -95 -192 -120 l-11 -29 -923 0 c-869 0 -922 1 -927 18
-3 9 -46 179 -96 377 -78 304 -96 363 -116 383 -25 22 -28 22 -315 22 l-290 0
-24 -25z m885 -1575 c203 -789 367 -1435 367 -1435 -19 -4 -126 -34 -137 -39
-13 -5 -72 215 -360 1346 -309 1212 -348 1356 -372 1381 -26 26 -30 27 -137
27 l-111 0 0 80 0 80 191 -2 192 -3 367 -1435z m2616 -231 c244 -590 444
-1077 444 -1083 0 -7 -38 -31 -85 -54 l-85 -42 -9 23 c-5 13 -204 494 -442
1068 -238 574 -434 1053 -436 1064 -4 16 10 27 79 61 46 23 85 40 87 38 2 -2
204 -486 447 -1075z m-715 796 c16 -38 29 -73 29 -77 0 -4 -425 -8 -944 -8
l-944 0 -20 80 -20 80 935 -2 934 -3 30 -70z m8 -302 c-28 -32 -358 -390 -733
-796 -540 -585 -682 -734 -688 -720 -4 10 -93 356 -198 768 -105 413 -195 762
-200 778 l-9 27 941 0 940 0 -53 -57z m186 -165 c15 -36 26 -71 24 -76 -2 -6
-319 -352 -704 -769 -385 -417 -716 -776 -737 -798 l-36 -39 -51 53 c-29 30
-51 60 -49 67 5 22 1510 1646 1518 1637 4 -4 19 -38 35 -75z m-2214 -921 c92
-359 166 -653 165 -654 -1 -1 -301 33 -667 77 -365 44 -672 80 -681 80 -10 0
-18 3 -18 8 0 4 60 73 133 153 72 80 303 338 512 572 208 234 382 424 384 421
3 -3 81 -299 172 -657z m-599 -727 c417 -49 765 -90 774 -90 12 0 15 -6 10
-22 -4 -13 -10 -49 -13 -80 -3 -32 -9 -58 -13 -58 -4 0 -361 43 -793 95 -433
52 -789 95 -792 95 -3 0 -5 36 -5 81 l0 81 38 -6 c20 -3 378 -46 794 -96z
m1151 -64 c103 -43 128 -177 48 -257 -65 -65 -157 -65 -222 0 -124 123 13 325
174 257z"/>
</g>
</svg>
